<?xml version="1.0" standalone="no"?>
<!DOCTYPE svg PUBLIC "-//W3C//DTD SVG 20010904//EN"
 "http://www.w3.org/TR/2001/REC-SVG-20010904/DTD/svg10.dtd">
<svg version="1.0" xmlns="http://www.w3.org/2000/svg"
 width="860.000000pt" height="1072.000000pt" viewBox="0 0 860.000000 1072.000000"
 preserveAspectRatio="xMidYMid meet">
<metadata>
Created by potrace 1.16, written by Peter Selinger 2001-2019
</metadata>
<g transform="translate(0.000000,1072.000000) scale(0.100000,-0.100000)"
fill="#000000" stroke="none">
<path d="M3795 10299 c-1289 -39 -2294 -269 -2883 -659 -309 -205 -495 -434
-575 -710 l-22 -75 0 -2770 0 -2770 23 -105 c112 -510 424 -911 877 -1130 96
-46 309 -120 346 -120 10 0 20 -4 24 -9 3 -6 -132 -285 -300 -620 l-305 -611
463 0 462 0 300 600 300 600 1797 0 1798 0 300 -600 300 -600 460 0 c301 0
460 3 460 10 0 6 -135 280 -300 611 -165 330 -298 604 -296 608 3 4 31 13 63
20 32 8 100 28 151 47 571 206 976 713 1048 1314 20 174 21 5397 0 5515 -48
271 -202 503 -476 714 -503 388 -1355 629 -2530 716 -420 31 -964 40 -1485 24z
m-132 -1621 c128 -60 220 -186 238 -327 12 -93 11 -1600 -1 -1684 -27 -182
-160 -318 -340 -347 -89 -14 -2021 -14 -2110 0 -135 22 -244 104 -303 228
l-32 67 0 900 0 900 27 58 c50 107 171 207 277 228 20 4 520 6 1111 5 l1075
-1 58 -27z m3599 -5 c93 -44 151 -100 196 -191 l37 -76 3 -864 c3 -940 3 -932
-53 -1027 -58 -100 -171 -176 -291 -195 -76 -13 -2016 -13 -2101 -1 -173 25
-311 157 -342 325 -7 40 -11 329 -11 870 0 896 1 901 62 1004 52 87 149 158
245 181 22 5 508 9 1113 8 l1075 -2 67 -32z m-4989 -4380 c181 -53 335 -198
397 -376 36 -101 44 -191 27 -291 -49 -282 -273 -486 -552 -503 -270 -16 -516
147 -605 398 -30 88 -38 240 -16 333 46 193 196 362 380 427 117 41 256 45
369 12z m4415 -8 c256 -82 426 -334 408 -607 -16 -241 -165 -436 -404 -526
-59 -23 -82 -26 -192 -26 -110 0 -133 3 -192 26 -140 53 -251 144 -323 263
-189 317 -39 737 310 864 128 47 258 49 393 6z"/>
</g>
</svg>
